<svg xmlns="http://www.w3.org/2000/svg" viewBox="0 0 360 600" width="360" height="600">
  <defs>
    <radialGradient id="bgGrad" cx="50%" cy="50%" r="75%">
      <stop offset="0%" stop-color="#1f212b" />
      <stop offset="70%" stop-color="#121318" />
      <stop offset="100%" stop-color="#0b0c0f" />
    </radialGradient>
    <linearGradient id="gold" x1="0%" y1="0%" x2="100%" y2="100%">
      <stop offset="0%" stop-color="#f5e0a3" />
      <stop offset="35%" stop-color="#c5a059" />
      <stop offset="70%" stop-color="#dfc282" />
      <stop offset="100%" stop-color="#8c6a2c" />
    </linearGradient>
    <pattern id="parchmentTexture" width="40" height="40" patternUnits="userSpaceOnUse">
      <path d="M0 20 Q10 15, 20 20 T40 20 M20 0 Q15 10, 20 20 T20 40" fill="none" stroke="#252836" stroke-width="0.6" opacity="0.4"/>
    </pattern>
    <filter id="goldGlow" x="-20%" y="-20%" width="140%" height="140%">
      <feGaussianBlur stdDeviation="3" result="blur" />
      <feComposite in="SourceGraphic" in2="blur" operator="over" />
    </filter>
  </defs>

  <!-- Background -->
  <rect width="360" height="600" rx="18" fill="url(#bgGrad)" />
  <rect width="360" height="600" rx="18" fill="url(#parchmentTexture)" />

  <!-- Outer Double Border -->
  <rect x="12" y="12" width="336" height="576" rx="12" fill="none" stroke="url(#gold)" stroke-width="2" opacity="0.85" />
  <rect x="18" y="18" width="324" height="564" rx="10" fill="none" stroke="url(#gold)" stroke-width="0.8" opacity="0.6" />
  <rect x="26" y="26" width="308" height="548" rx="6" fill="none" stroke="#6e262c" stroke-width="1.2" opacity="0.7" />

  <!-- Corner Ornamental Runes -->
  <g stroke="url(#gold)" fill="none" stroke-width="1.2">
    <!-- Top-Left -->
    <path d="M26 48 L48 26 M26 38 L38 26 M34 34 circle 2" />
    <!-- Top-Right -->
    <path d="M334 48 L312 26 M334 38 L322 26" />
    <!-- Bottom-Left -->
    <path d="M26 552 L48 574 M26 562 L38 574" />
    <!-- Bottom-Right -->
    <path d="M334 552 L312 574 M334 562 L322 574" />
  </g>

  <!-- Central Occult Sacred Geometry -->
  <g transform="translate(180, 300)" filter="url(#goldGlow)">
    <!-- Outer Rings -->
    <circle r="120" fill="none" stroke="url(#gold)" stroke-width="1.2" stroke-dasharray="6,4" opacity="0.6" />
    <circle r="105" fill="none" stroke="url(#gold)" stroke-width="1.8" />
    <circle r="98" fill="none" stroke="#6e262c" stroke-width="1.5" opacity="0.8" />
    
    <!-- Astrological Star & Geometric Intersections -->
    <polygon points="0,-90 77,45 -77,45" fill="none" stroke="url(#gold)" stroke-width="1.4" opacity="0.8" />
    <polygon points="0,90 77,-45 -77,-45" fill="none" stroke="url(#gold)" stroke-width="1.4" opacity="0.8" />
    <circle r="52" fill="none" stroke="url(#gold)" stroke-width="1.5" opacity="0.9" />
    <rect x="-37" y="-37" width="74" height="74" fill="none" stroke="url(#gold)" stroke-width="1.2" transform="rotate(45)" opacity="0.7" />

    <!-- Center Eye of Providence / Ouroboros -->
    <circle r="22" fill="#181a24" stroke="url(#gold)" stroke-width="2" />
    <path d="M-14,0 Q0,-12 14,0 Q0,12 -14,0 Z" fill="none" stroke="url(#gold)" stroke-width="1.5" />
    <circle r="5" fill="url(#gold)" />
    <circle r="2" fill="#121318" />

    <!-- Cardinal Rays -->
    <line x1="0" y1="-105" x2="0" y2="-130" stroke="url(#gold)" stroke-width="2" />
    <line x1="0" y1="105" x2="0" y2="130" stroke="url(#gold)" stroke-width="2" />
    <line x1="-105" y1="0" x2="-130" y2="0" stroke="url(#gold)" stroke-width="2" />
    <line x1="105" y1="0" x2="130" y2="0" stroke="url(#gold)" stroke-width="2" />
  </g>

  <!-- Mystical Latin Inscription Header & Footer -->
  <text x="180" y="70" text-anchor="middle" font-family="'Cormorant Garamond', 'Playfair Display', serif" font-size="13" font-style="italic" fill="url(#gold)" letter-spacing="4">IGNIS • AER • AQUA • TERRA</text>
  <text x="180" y="542" text-anchor="middle" font-family="'Cormorant Garamond', 'Playfair Display', serif" font-size="12" font-style="italic" fill="url(#gold)" letter-spacing="3">VERITAS IN TENEBRIS</text>
</svg>